<svg width="25" height="39" viewBox="0 0 25 39" fill="none" xmlns="http://www.w3.org/2000/svg">
<circle cx="12.5" cy="12.5" r="3.40909" fill="url(#paint0_linear_1_195)"/>
<circle cx="12.5" cy="12.5" r="8.59091" stroke="url(#paint1_linear_1_195)"/>
<circle cx="12.5" cy="12.5" r="12" stroke="url(#paint2_linear_1_195)"/>
<path d="M5.52753 35.52C5.13286 35.1307 4.93553 34.6267 4.93553 34.008C4.93553 33.3893 5.13553 32.8853 5.53553 32.496C5.94086 32.1013 6.42886 31.904 6.99953 31.904C7.2662 31.904 7.52753 31.952 7.78353 32.048C8.04486 32.144 8.26086 32.2853 8.43153 32.472L8.22353 32.744C8.07953 32.5893 7.89553 32.4667 7.67153 32.376C7.45286 32.28 7.22886 32.232 6.99953 32.232C6.51953 32.232 6.1142 32.3973 5.78353 32.728C5.45286 33.0533 5.28753 33.48 5.28753 34.008C5.28753 34.5307 5.45286 34.9547 5.78353 35.28C6.1142 35.6053 6.51953 35.768 6.99953 35.768C7.2502 35.768 7.49553 35.7173 7.73553 35.616C7.97553 35.5147 8.17553 35.3733 8.33553 35.192L8.51153 35.472C8.34086 35.664 8.11953 35.816 7.84753 35.928C7.58086 36.04 7.2982 36.096 6.99953 36.096C6.4182 36.096 5.92753 35.904 5.52753 35.52ZM9.53584 35.192V30.4H9.87184V35.088C9.87184 35.504 10.0292 35.712 10.3438 35.712C10.3918 35.712 10.4318 35.7093 10.4638 35.704V36.016C10.4212 36.0267 10.3732 36.032 10.3198 36.032C10.2452 36.032 10.1705 36.0213 10.0958 36C10.0212 35.984 9.93584 35.9493 9.83984 35.896C9.74918 35.8427 9.67451 35.7573 9.61584 35.64C9.56251 35.5173 9.53584 35.368 9.53584 35.192ZM11.3163 30.984V30.4H11.7163V30.984H11.3163ZM11.3483 36V32H11.6843V36H11.3483ZM13.3869 35.52C12.9922 35.1307 12.7949 34.6267 12.7949 34.008C12.7949 33.3893 12.9949 32.8853 13.3949 32.496C13.8002 32.1013 14.2882 31.904 14.8589 31.904C15.1256 31.904 15.3869 31.952 15.6429 32.048C15.9042 32.144 16.1202 32.2853 16.2909 32.472L16.0829 32.744C15.9389 32.5893 15.7549 32.4667 15.5309 32.376C15.3122 32.28 15.0882 32.232 14.8589 32.232C14.3789 32.232 13.9736 32.3973 13.6429 32.728C13.3122 33.0533 13.1469 33.48 13.1469 34.008C13.1469 34.5307 13.3122 34.9547 13.6429 35.28C13.9736 35.6053 14.3789 35.768 14.8589 35.768C15.1096 35.768 15.3549 35.7173 15.5949 35.616C15.8349 35.5147 16.0349 35.3733 16.1949 35.192L16.3709 35.472C16.2002 35.664 15.9789 35.816 15.7069 35.928C15.4402 36.04 15.1576 36.096 14.8589 36.096C14.2776 36.096 13.7869 35.904 13.3869 35.52ZM17.3952 36V30.4H17.7312V33.576H18.4432L19.7392 32H20.1792L18.7312 33.72V33.736L20.3152 36H19.8912L18.4432 33.888H17.7312V36H17.3952Z" fill="white" fill-opacity="0.63"/>
<defs>
<linearGradient id="paint0_linear_1_195" x1="9.09094" y1="12.5643" x2="15.9091" y2="12.5643" gradientUnits="userSpaceOnUse">
<stop stop-color="#EE7C36"/>
<stop offset="1" stop-color="#EC9A3C"/>
</linearGradient>
<linearGradient id="paint1_linear_1_195" x1="3.40906" y1="12.6715" x2="21.5909" y2="12.6715" gradientUnits="userSpaceOnUse">
<stop stop-color="#EE7C36"/>
<stop offset="1" stop-color="#EC9A3C"/>
</linearGradient>
<linearGradient id="paint2_linear_1_195" x1="-4.84725e-08" y1="12.7358" x2="25" y2="12.7358" gradientUnits="userSpaceOnUse">
<stop stop-color="#EE7C36"/>
<stop offset="1" stop-color="#EC9A3C"/>
</linearGradient>
</defs>
</svg>
