<svg width="36" height="33" viewBox="0 0 36 33" fill="none" xmlns="http://www.w3.org/2000/svg">
<path d="M33.5016 0.789036C33.1119 0.80613 32.7327 0.914573 32.3906 1.05154C32.0521 1.18758 30.1031 2.01945 27.225 3.24997C24.3469 4.4805 20.6056 6.08291 16.8969 7.67185C9.4795 10.8497 2.19064 13.9765 2.19064 13.9765L2.24376 13.9562C2.24376 13.9562 1.80384 14.1033 1.35783 14.414C1.13482 14.5694 0.894896 14.77 0.698451 15.0625C0.502006 15.3549 0.358392 15.7694 0.412513 16.2078C0.602612 17.7476 2.19845 18.1843 2.19845 18.1843L2.2047 18.1875L9.32658 20.625C9.50816 21.2307 11.4867 27.8343 11.9219 29.2328C12.1623 30.006 12.3872 30.452 12.6219 30.7562C12.7393 30.9085 12.8624 31.0263 12.9985 31.1125C13.0525 31.1467 13.1094 31.1724 13.1656 31.1953C13.1668 31.1958 13.1676 31.1948 13.1688 31.1953C13.1757 31.1983 13.1822 31.1986 13.1891 31.2015L13.1703 31.1968C13.1834 31.2021 13.1963 31.211 13.2094 31.2156C13.2348 31.2245 13.2503 31.2242 13.2828 31.2312C14.0985 31.516 14.7735 30.9875 14.7735 30.9875L14.8016 30.9656L19.1766 26.9078L26.2766 32.4437L26.3656 32.4843C27.6084 33.0361 28.7323 32.7283 29.3547 32.2218C29.9771 31.7154 30.2219 31.0625 30.2219 31.0625L30.2484 30.9937L35.4656 3.80154C35.5991 3.19319 35.6181 2.66733 35.4922 2.19216C35.3663 1.71699 35.0604 1.30392 34.6766 1.07497C34.2927 0.846024 33.8912 0.771942 33.5016 0.789036ZM33.5438 2.4156C33.702 2.40827 33.8193 2.42636 33.8563 2.44841C33.8932 2.47046 33.9098 2.46756 33.9453 2.60154C33.9808 2.73551 34 3.0177 33.9031 3.45935L33.9 3.46872L28.7125 30.5031C28.7002 30.5303 28.5921 30.7804 28.3453 30.9812C28.0935 31.1861 27.8135 31.346 27.0703 31.0343L19.3063 24.9797L19.0875 24.8078L19.0828 24.8125L16.761 23.0703L29.8094 7.71872C29.9097 7.60107 29.9737 7.45689 29.9937 7.30361C30.0138 7.15034 29.989 6.99453 29.9224 6.85504C29.8558 6.71554 29.7502 6.59833 29.6184 6.51757C29.4866 6.43681 29.3342 6.39597 29.1797 6.39997C29.0287 6.40389 28.8819 6.45048 28.7563 6.53435L9.87501 19.1218L2.7422 16.6797C2.7422 16.6797 2.03392 16.2855 2.00001 16.0109C1.99813 15.9957 1.98977 16.0095 2.02658 15.9547C2.06338 15.8999 2.1559 15.8074 2.27189 15.7265C2.50387 15.5649 2.76876 15.4672 2.76876 15.4672L2.79533 15.4578L2.82189 15.4468C2.82189 15.4468 10.1111 12.3199 17.5281 9.14216C21.2366 7.5533 24.9773 5.95207 27.8547 4.72185C30.7314 3.49194 32.8099 2.60667 32.986 2.53591C33.1863 2.45567 33.3855 2.42293 33.5438 2.4156ZM24.8906 11.0343L14.9953 22.6765L14.9906 22.6812C14.9752 22.6998 14.9606 22.7191 14.9469 22.739C14.9312 22.7607 14.9166 22.7831 14.9031 22.8062C14.8475 22.9006 14.8119 23.0053 14.7985 23.114C14.7984 23.1161 14.7984 23.1182 14.7985 23.1203L13.5094 28.9172C13.488 28.8545 13.473 28.8316 13.45 28.7578V28.7562C13.0406 27.4407 11.1739 21.2129 10.9156 20.3515L24.8906 11.0343ZM16.1125 24.5843L17.8906 25.9187L15.2781 28.3406L16.1125 24.5843Z" fill="white"/>
</svg>
