<svg width="34" height="38" viewBox="0 0 34 38" fill="none" xmlns="http://www.w3.org/2000/svg">
<path d="M16.5406 0.399983C15.45 0.406233 14.3562 0.471858 13.2531 0.606233C11.1437 0.865608 9.0531 1.29686 7.04685 2.21873C3.85623 3.68436 1.59373 6.17186 0.937477 9.78748C0.659352 11.3125 0.434352 12.8594 0.306227 14.4156C0.059352 17.4375 0.212477 20.4687 1.06873 23.4469C1.74373 25.7937 2.98748 27.9031 5.1656 29.2719C6.08748 29.85 7.3031 30.1312 7.93748 30.425C8.1156 30.5094 8.15935 30.5594 8.16873 30.5719C8.1781 30.5812 8.2031 30.6031 8.19998 30.7906C8.1781 32.7031 8.19998 36.4031 8.19998 36.4031L8.2031 37.2H9.63123L9.86248 36.975C9.86248 36.975 13.4906 33.4844 14.8031 32.0469C15.0406 31.7906 15.1625 31.6469 15.1875 31.6312C15.2094 31.6156 15.1719 31.6062 15.4156 31.6C17.1375 31.5656 18.8562 31.5 20.575 31.4062C22.8406 31.2812 25.15 31.0656 27.3718 30.1375C29.3062 29.3281 30.9218 28.0062 31.9 26.025C32.9 23.9937 33.4343 21.8406 33.6343 19.6125C33.9656 15.9031 33.85 12.1875 32.825 8.52498C32.2218 6.37811 31.0093 4.56248 29.15 3.28123C26.925 1.74998 24.4156 1.17498 21.9594 0.809358C20.525 0.596858 19.0812 0.456233 17.6312 0.412483C17.2687 0.403108 16.9062 0.396858 16.5406 0.399983ZM17.5875 2.01248C18.9656 2.04998 20.3437 2.18436 21.725 2.39061C24.0937 2.74373 26.3281 3.28123 28.2437 4.59998C29.7968 5.66873 30.7656 7.11248 31.2843 8.95311C32.2406 12.3781 32.3625 15.8875 32.0406 19.4719C31.8562 21.5375 31.3656 23.4844 30.4625 25.3187C29.6656 26.9375 28.4219 27.9656 26.7531 28.6625C24.8156 29.4719 22.7094 29.6875 20.4906 29.8094C18.7906 29.9031 17.0875 29.9656 15.3844 30C14.9562 30.0094 14.5375 30.1219 14.2406 30.3406C13.9437 30.5594 13.8094 30.7625 13.625 30.9625C12.6875 31.9875 10.8187 33.7906 9.79998 34.7781C9.79373 33.5844 9.78435 32.1406 9.79998 30.8094C9.80623 30.4 9.71248 29.9812 9.4781 29.65C9.24373 29.3187 8.92185 29.1187 8.61248 28.975C7.70935 28.5562 6.5281 28.2375 6.0156 27.9156C4.22498 26.7906 3.20935 25.1031 2.60623 23.0031C1.8156 20.2562 1.6656 17.4281 1.89998 14.55C2.02498 13.0562 2.2406 11.5594 2.51248 10.075C3.08123 6.94686 4.86873 4.97811 7.71248 3.67186C9.50935 2.84686 11.4281 2.44061 13.45 2.19373C14.8281 2.02498 16.2062 1.97186 17.5875 2.01248ZM17.925 5.99998C17.2656 5.99998 16.625 6.07498 16.0031 6.21248C15.575 6.31248 15.3031 6.74061 15.4 7.17186C15.4969 7.60311 15.9281 7.87186 16.3594 7.77498C16.8625 7.65936 17.3875 7.59998 17.925 7.59998C21.8312 7.59998 24.9812 10.75 24.9812 14.6531C24.9812 15.1937 24.9219 15.7187 24.8062 16.225C24.7094 16.6531 24.9781 17.0844 25.4094 17.1812C25.8406 17.2781 26.2687 17.0062 26.3656 16.575C26.5062 15.9562 26.5812 15.3156 26.5812 14.6531C26.5812 9.88436 22.6969 5.99998 17.925 5.99998ZM9.94373 7.60311C9.81248 7.59686 9.6781 7.60623 9.53748 7.63748C8.08435 7.95936 6.6406 9.01248 6.59998 10.8937C6.6406 11.1562 6.63748 11.4375 6.73435 11.675C7.20935 12.8375 7.62185 14.0375 8.2156 15.1375C11.1062 20.4812 15.4781 24.1969 21.05 26.5562C21.7156 26.8375 22.4031 26.8969 23.075 26.6156C24 26.2312 24.7844 25.6375 25.3062 24.7844C26.0219 23.6125 26.0312 22.8 24.8531 21.9344C24.0812 21.3656 23.3219 20.7812 22.5406 20.225C21.35 19.3812 20.0625 19.2344 19.175 20.7156C19.1281 20.7906 19.0594 20.8531 19 20.9156C18.5437 21.4 17.9844 21.5187 17.3906 21.275C15.1375 20.3469 13.3969 18.85 12.3469 16.6219C11.7281 15.3125 11.8969 14.6562 13.0531 13.7844C13.1687 13.7 13.2781 13.6094 13.3844 13.5125C13.8906 13.05 14.025 12.5 13.725 11.8781C13.0469 10.4594 12.1437 9.19373 11 8.10311C10.6906 7.80936 10.3375 7.62498 9.94373 7.60311ZM17.9125 8.39998C17.5594 8.39998 17.2094 8.42811 16.8656 8.48748C16.575 8.52498 16.3281 8.71873 16.2219 8.99061C16.1156 9.26561 16.1687 9.57498 16.3562 9.79998C16.5469 10.0219 16.8469 10.125 17.1344 10.0625C17.3844 10.0219 17.6469 9.99998 17.9125 9.99998C20.5125 9.99998 22.6 12.0875 22.6 14.6875C22.6 14.9531 22.5781 15.2156 22.5375 15.4656C22.475 15.7531 22.5781 16.0531 22.8 16.2437C23.025 16.4312 23.3344 16.4844 23.6094 16.3781C23.8812 16.2719 24.075 16.025 24.1125 15.7344C24.1719 15.3906 24.2 15.0406 24.2 14.6875C24.2 11.225 21.375 8.39998 17.9125 8.39998ZM17.8 10.8C17.5125 10.7969 17.2437 10.9469 17.0969 11.1969C16.9531 11.4469 16.9531 11.7531 17.0969 12.0031C17.2437 12.2531 17.5125 12.4031 17.8 12.4C19.1344 12.4 20.2 13.4656 20.2 14.8C20.1969 15.0875 20.3469 15.3562 20.5969 15.5031C20.8469 15.6469 21.1531 15.6469 21.4031 15.5031C21.6531 15.3562 21.8031 15.0875 21.8 14.8C21.8 12.6 20 10.8 17.8 10.8Z" fill="white"/>
</svg>
