<svg width="160" height="42" fill="none" xmlns="http://www.w3.org/2000/svg"><path d="M143.225 15.7c-1.94.7-3.103 1.7-7.176 5.7-3.879 3.8-5.43 4.9-6.4 4.1-.776-.6-.582-1.6.388-2.9 1.067-1.3.97-1.7-.485-1-4.364 2.4-4.364 9.1 0 11.4 2.036 1 6.497 1 9.503.1 3.588-1.1 7.273-4.3 9.018-7.9.388-.8.388-.9-.776-.6-1.163.3-1.163.3-.484-.5 1.066-1.2 4.46-2.9 6.884-3.1 2.231-.2 2.425 0 2.328-.2-.291-.5-1.843-2.9-3.103-3.8-2.425-1.7-6.885-2.3-9.697-1.3z" fill="url(#paint0_linear_2_483)"/><path fill-rule="evenodd" clip-rule="evenodd" d="M121.406 19.7c.97-.7 3.588-1.6 5.721-2 .873-.1 2.133-.3 2.715-.3h1.164l-2.036 2c-2.619 2.5-3.782 5-4.073 8.3l-.194 2.4-1.358-1.5c-.872-1-1.551-2.4-2.036-3.9-.873-3.1-.873-4.3.097-5zm10.57-17.5c-.873.6-1.94 1.4-2.328 1.9-1.163 1.3-2.521 4.4-2.521 5.7 0 1.3-.485 1.4-.97.3-.097-.2-.097-.3-.194-.4-.097-.2-.097-.3-.193-.3-.097-.1-.388.2-.97.8-.097.1-.291.3-.485.4-1.358 1.3-3.491 5.1-3.491 6.2 0 .4.194.4.97 0 1.842-1 5.236-1.4 8.048-.9 5.237.8 6.4.8 9.018.2 3.103-.8 6.885-3.1 7.176-3.7 0-.1-.485-.1-1.066-.1h-.582c-1.843 0-4.655-1.5-6.109-3.4-.873-1.1-1.649-1.7-2.716-2-.775-.2-1.551-.5-1.648-.6-.097-.1-.194-1.3-.388-2.6l-.194-2.5-1.357 1zm5.139 7.8c.873 1.1.776 1.3-.582.8-.485-.2-.873-.3-1.26-.4-.388-.1-.776-.1-1.067-.1-1.261 0-1.552-.3-.582-.8 1.164-.7 2.715-.5 3.491.5zm-1.649-6.2c-.872 1.4-.872 1.7-.193 1.7.29 0 .678.1 1.066.2.485.2.582-.1.582-1.4-.097-2-.582-2.1-1.455-.5z" fill="url(#paint1_linear_2_483)"/><path d="M25.6 30h-5.624l-1.164-3.6h-8.34L9.504 30H3.88l7.66-23.1h6.498L25.6 30zM14.74 12.9l-2.619 8.5h5.237l-2.619-8.5zm17.066 5.4c0 .3.194.5.679.8.485.2 1.164.4 2.133.7 3.394.8 5.14 2.5 5.043 5.3 0 1.8-.68 3.1-1.94 4.1-1.26.9-2.909 1.4-4.751 1.4-3.394 0-5.624-1.3-6.885-3.9l4.17-2.4c.387 1.3 1.357 1.9 2.715 1.9 1.163 0 1.745-.3 1.745-1 0-.5-.97-1-2.812-1.5-.679-.2-1.26-.4-1.745-.6-.485-.2-1.067-.5-1.552-.9-.582-.4-.97-.9-1.26-1.5-.291-.6-.485-1.3-.485-2.1 0-1.7.581-3 1.745-4 1.164-.9 2.715-1.4 4.46-1.4 2.813 0 4.85 1.2 6.207 3.5L35.2 19c-.485-1-1.26-1.5-2.133-1.5-.873-.1-1.26.2-1.26.8zm14.643-7.1c-.582.6-1.261.9-2.037.9s-1.454-.3-2.036-.9c-.582-.6-.873-1.3-.873-2.1s.291-1.5.873-2.1c.582-.6 1.26-.9 2.036-.9s1.455.3 2.037.9c.581.6.872 1.3.872 2.1s-.29 1.5-.872 2.1zm.388 18.8h-4.849V13.5h4.849V30zm11.248.5c-2.424 0-4.46-.8-6.11-2.5-1.648-1.7-2.423-3.7-2.423-6.2s.775-4.5 2.424-6.2c1.648-1.7 3.685-2.5 6.109-2.5 1.551 0 2.91.4 4.267 1.2 1.26.8 2.327 1.8 3.006 3.1l-4.267 2.4c-.582-1.2-1.648-1.8-3.103-1.8-1.067 0-1.94.4-2.618 1.1-.679.7-1.067 1.6-1.067 2.7s.388 2 1.067 2.8c.679.7 1.551 1.1 2.618 1.1 1.551 0 2.521-.6 3.103-1.8l4.17 2.5a7.597 7.597 0 01-3.006 3.1c-1.26.6-2.716 1-4.17 1z" fill="#fff"/><path d="M81.164 6.9V12h-8.437v4.5h8.34v5.1h-8.34V30h-5.14V6.9h13.577zM97.648 28c-1.648 1.7-3.587 2.5-6.012 2.5-2.424 0-4.363-.9-6.012-2.5-1.648-1.7-2.424-3.8-2.424-6.2 0-2.4.776-4.5 2.424-6.2 1.649-1.7 3.685-2.5 6.012-2.5 2.328 0 4.364.8 6.013 2.5 1.648 1.7 2.424 3.8 2.424 6.2.097 2.4-.776 4.5-2.424 6.2zm-9.697-6.2c0 1.1.388 2.1 1.067 2.8.679.7 1.552 1.1 2.618 1.1 1.067 0 1.94-.4 2.619-1.1.678-.7 1.066-1.7 1.066-2.8 0-1.1-.388-2.1-1.066-2.8-.68-.7-1.552-1.1-2.619-1.1-1.066 0-1.939.4-2.618 1.1-.679.7-1.067 1.6-1.067 2.8zm23.273-.2l5.721 8.4h-5.527l-3.006-4.4-3.006 4.4h-5.527l5.721-8.4-5.527-8.1h5.527l2.812 4.1 2.812-4.1h5.528l-5.528 8.1z" fill="url(#paint2_linear_2_483)"/><defs><linearGradient id="paint0_linear_2_483" x1="129.021" y1="-3.148" x2="168.988" y2="15.068" gradientUnits="userSpaceOnUse"><stop stop-color="#FF6A16"/><stop offset="1" stop-color="#FFA216"/></linearGradient><linearGradient id="paint1_linear_2_483" x1="123.003" y1="-27.411" x2="161.737" y2="-17.753" gradientUnits="userSpaceOnUse"><stop stop-color="#FF6A16"/><stop offset="1" stop-color="#FFA216"/></linearGradient><linearGradient id="paint2_linear_2_483" x1="72.134" y1="-16.464" x2="131.301" y2="18.681" gradientUnits="userSpaceOnUse"><stop stop-color="#FF6A16"/><stop offset="1" stop-color="#FFA216"/></linearGradient></defs></svg>